HIERARCHY
ROOT root
{
	OFFSET 0.000000 0.000000 0.000000
	CHANNELS 6 Xposition Yposition Zposition Zrotation Yrotation Xrotation
	JOINT lhip
	{
		OFFSET 0.058581 -0.082280 -0.017664
		CHANNELS 3 Zrotation Yrotation Xrotation
		JOINT lknee
		{
			OFFSET 0.043451 -0.386469 0.008037
			CHANNELS 3 Zrotation Yrotation Xrotation
			JOINT lankle
			{
				OFFSET -0.014790 -0.426874 -0.037428
				CHANNELS 3 Zrotation Yrotation Xrotation
				JOINT ltoe
				{
					OFFSET 0.041054 -0.060286 0.122042
					CHANNELS 3 Zrotation Yrotation Xrotation
					End Site
					{
						OFFSET 0.000000 0.000000 0.000000
					}
				}
			}
		}
	}
	JOINT rhip
	{
		OFFSET -0.060310 -0.090513 -0.013543
		CHANNELS 3 Zrotation Yrotation Xrotation
		JOINT rknee
		{
			OFFSET -0.043257 -0.383688 -0.004843
			CHANNELS 3 Zrotation Yrotation Xrotation
			JOINT rankle
			{
				OFFSET 0.019056 -0.420046 -0.034562
				CHANNELS 3 Zrotation Yrotation Xrotation
				JOINT rtoe
				{
					OFFSET -0.034840 -0.062106 0.130323
					CHANNELS 3 Zrotation Yrotation Xrotation
					End Site
					{
						OFFSET 0.000000 0.000000 0.000000
					}
				}
			}
		}
	}
	JOINT lowerback
	{
		OFFSET 0.004439 0.124404 -0.038385
		CHANNELS 3 Zrotation Yrotation Xrotation
		JOINT upperback
		{
			OFFSET 0.004488 0.137956 0.026820
			CHANNELS 3 Zrotation Yrotation Xrotation
			JOINT chest
			{
				OFFSET -0.002265 0.056032 0.002855
				CHANNELS 3 Zrotation Yrotation Xrotation
				JOINT lowerneck
				{
					OFFSET -0.013390 0.211636 -0.033468
					CHANNELS 3 Zrotation Yrotation Xrotation
					JOINT upperneck
					{
						OFFSET 0.010113 0.088937 0.050410
						CHANNELS 3 Zrotation Yrotation Xrotation
						End Site
						{
							OFFSET 0.000000 0.000000 0.000000
						}
					}
				}
				JOINT lclavicle
				{
					OFFSET 0.071702 0.114000 -0.018898
					CHANNELS 3 Zrotation Yrotation Xrotation
					JOINT lshoulder
					{
						OFFSET 0.122921 0.045205 -0.019046
						CHANNELS 3 Zrotation Yrotation Xrotation
						JOINT lelbow
						{
							OFFSET 0.255332 -0.015649 -0.022946
							CHANNELS 3 Zrotation Yrotation Xrotation
							JOINT lwrist
							{
								OFFSET 0.265709 0.012698 -0.007375
								CHANNELS 3 Zrotation Yrotation Xrotation
								End Site
								{
									OFFSET 0.000000 0.000000 0.000000
								}
							}
						}
					}
				}
				JOINT rclavicle
				{
					OFFSET -0.082954 0.112472 -0.023707
					CHANNELS 3 Zrotation Yrotation Xrotation
					JOINT rshoulder
					{
						OFFSET -0.113228 0.046853 -0.008472
						CHANNELS 3 Zrotation Yrotation Xrotation
						JOINT relbow
						{
							OFFSET -0.260127 -0.014369 -0.031269
							CHANNELS 3 Zrotation Yrotation Xrotation
							JOINT rwrist
							{
								OFFSET -0.269108 0.006794 -0.006027
								CHANNELS 3 Zrotation Yrotation Xrotation
								End Site
								{
									OFFSET 0.000000 0.000000 0.000000
								}
							}
						}
					}
				}
			}
		}
	}
}
MOTION
Frames: 17
Frame Time: 0.033333
1.411500 -0.466038 0.976269 2.649587 2.695327 84.345814 6.384477 -11.049322 -6.857686 -13.997674 -29.494255 24.661321 -0.970553 0.552110 -26.041266 0.000000 -0.000000 0.000000 -3.079942 7.258611 -12.070135 7.515058 13.014785 38.094493 10.366178 -0.117664 -23.264832 0.000000 -0.000000 0.000000 -4.921434 4.594737 12.141590 2.090651 1.884484 1.700211 -0.944727 0.605296 3.073729 6.215079 9.279162 2.837730 -2.781592 -5.262090 13.788765 -27.774498 12.932748 -0.184065 -47.382849 2.409890 6.038721 12.966801 -29.147222 -5.543050 11.244878 -4.852644 -8.011886 32.815934 -6.025097 -1.244266 50.083682 1.710762 17.602049 -15.665730 48.992251 4.923634 4.242189 7.946874 -3.207341 
1.398371 -0.465591 0.977029 4.837400 2.158829 84.671552 6.801574 -11.493141 -7.228752 -14.136441 -30.803117 23.972345 -1.783101 -0.477576 -25.498490 0.000000 -0.000000 0.000000 -2.876812 6.479349 -11.102391 7.054659 12.736001 36.416735 9.563423 0.093408 -23.741473 0.000000 -0.000000 0.000000 -4.580692 4.954189 11.610912 2.042564 1.936967 2.127186 -0.940098 0.688377 3.126796 6.217206 9.957701 2.975040 -3.236486 -4.570395 13.337575 -28.074994 13.442717 -0.278589 -47.914480 3.255647 6.188305 12.507304 -28.916935 -4.937005 11.570557 -4.825987 -8.758138 32.359726 -5.786240 -0.627828 49.839374 2.545113 17.771483 -14.229448 50.069277 5.509717 2.125695 8.115834 -5.796602 
1.382672 -0.462877 0.977453 6.349905 1.561885 84.893599 7.437752 -11.816867 -7.485988 -13.889096 -31.186746 22.850285 -2.375117 -1.221827 -25.144869 0.000000 -0.000000 0.000000 -2.845723 5.862564 -10.721993 6.779126 11.728998 35.250962 9.070115 0.123656 -24.521699 0.000000 -0.000000 0.000000 -4.233714 5.463429 11.246623 1.789034 2.291195 2.759278 -1.170873 1.402128 3.007401 6.262315 10.810823 2.635793 -3.042529 -4.649425 13.712620 -27.680692 13.556524 -0.148075 -48.999847 3.618900 6.174575 12.622004 -28.481897 -4.927581 9.417192 -4.936380 -8.691545 32.548451 -5.678499 -0.696194 50.013515 2.801654 17.221847 -15.773018 50.814832 5.401252 5.746066 8.734302 -4.039462 
1.365778 -0.458567 0.976205 6.729197 0.438906 85.333849 7.685929 -11.537047 -7.611467 -13.340828 -31.548808 20.938824 -3.978738 -1.332584 -24.718101 0.000000 -0.000000 0.000000 -3.421812 6.222779 -11.214452 6.404368 10.341147 34.529457 7.698056 -0.631533 -25.791664 0.000000 -0.000000 0.000000 -4.466427 5.496900 11.144843 1.106775 2.996856 2.836512 -1.460782 2.644022 3.132404 6.843995 12.705233 1.669816 -3.268126 -4.727457 14.534483 -26.711169 14.273477 -0.750544 -50.360745 4.175577 6.315187 12.246390 -28.377384 -3.812287 9.291906 -4.912069 -9.364031 31.945214 -5.097824 0.076022 52.289268 4.411292 17.417671 -17.586973 50.325528 4.107870 4.733891 8.986789 -5.048418 
1.349627 -0.452161 0.976951 8.736366 -0.112044 85.592601 8.193329 -11.427414 -8.417434 -13.148808 -31.750293 19.964409 -4.473136 -3.099698 -22.428772 0.000000 -0.000000 0.000000 -3.606562 4.812637 -11.318796 6.355996 9.143524 33.514754 7.586641 -0.825090 -25.853958 0.000000 -0.000000 0.000000 -3.890121 6.026341 11.860013 1.009954 3.518728 2.510966 -1.130449 2.386508 3.037189 6.499866 12.343352 1.488983 -3.498293 -4.006150 14.747667 -27.693985 14.339373 -0.902633 -50.818353 4.391031 6.260888 11.964244 -28.065723 -3.360939 8.518291 -5.217276 -9.043571 31.640792 -5.129715 -0.070494 51.762942 4.774390 17.148132 -17.537271 51.608993 4.490110 5.432635 9.372132 -3.512580 
1.333259 -0.442924 0.978271 10.411074 -0.538224 85.910234 8.387647 -10.453636 -9.605165 -12.430463 -30.713090 19.297046 -5.518531 -3.113122 -21.303303 0.000000 -0.000000 0.000000 -3.834994 3.938975 -12.591638 6.518978 7.529822 33.781523 7.198584 -0.650619 -25.193692 0.000000 -0.000000 0.000000 -2.912264 5.967564 13.281005 0.584327 4.201768 1.912257 -1.219830 2.715528 2.967298 5.978957 12.857115 0.698414 -3.439610 -3.091094 14.939065 -28.491413 14.658657 -1.810499 -51.415754 4.643043 6.383738 11.976330 -28.528858 -2.666860 8.501775 -5.626148 -8.166534 31.665477 -5.018378 -0.263431 51.081910 5.406019 16.822966 -17.250441 52.803122 4.110904 5.180692 9.957629 -3.204203 
1.319516 -0.434127 0.980236 13.979166 -0.851911 86.208893 7.613252 -9.606076 -12.018456 -11.611611 -26.501797 20.314309 -6.178773 -1.311772 -21.060694 0.000000 -0.000000 0.000000 -4.143157 2.062768 -12.886918 6.718606 6.104331 32.881782 7.793604 -0.077110 -24.509664 0.000000 -0.000000 0.000000 -1.225759 5.917040 14.286868 0.761949 3.409244 1.816777 -1.557638 2.742515 3.007962 5.137418 12.788629 0.372207 -3.772102 -2.197685 14.637998 -29.318181 14.428042 -2.164837 -52.207124 4.908426 6.637125 11.650874 -29.588669 -1.408650 9.592533 -5.846796 -7.573705 31.289230 -5.092144 -0.084208 50.598498 6.076047 16.293367 -17.875615 54.022986 3.186348 3.886380 9.806512 -3.549650 
1.304642 -0.424120 0.981373 16.616233 -1.418420 86.332100 6.315883 -7.750534 -14.073679 -10.559105 -18.183482 21.959506 -4.306641 2.836379 -21.404271 0.000000 -0.000000 0.000000 -4.412716 1.446136 -13.497506 6.461543 4.232176 32.471000 7.200939 -0.413665 -23.768049 0.000000 -0.000000 0.000000 -0.380894 6.035080 15.375983 0.841147 3.750758 1.436791 -1.299828 2.710879 3.232789 4.611756 12.718762 0.345023 -4.031269 -0.482415 14.805459 -29.492035 14.107355 -2.058975 -53.478981 4.984484 6.706210 11.323143 -31.436746 0.727297 8.215480 -6.053076 -6.714142 30.819903 -4.952655 0.295753 50.584907 6.542446 15.713381 -20.850755 54.608415 0.006583 3.529764 9.726554 -3.408700 
1.291068 -0.414889 0.981763 19.286957 -1.650091 86.214151 4.836946 -5.782241 -15.433183 -9.967082 -10.970702 25.537988 -0.868101 6.410316 -23.212537 0.000000 -0.000000 0.000000 -4.205220 0.971717 -14.147418 6.109517 2.527091 32.556212 6.851525 -1.209810 -23.515429 0.000000 -0.000000 0.000000 0.381077 5.863426 16.461583 1.272228 3.992409 0.968045 -0.899102 2.745821 3.578905 4.374535 12.488700 0.261867 -4.256257 1.132954 14.946744 -29.470722 14.229811 -2.096957 -54.440117 5.179464 7.000204 10.027655 -34.264432 3.396764 7.351818 -6.424157 -5.950001 30.428718 -5.043840 0.370423 49.704560 7.062881 15.177006 -22.090650 55.117180 -2.525915 3.358908 10.110183 -3.348735 
1.278553 -0.406521 0.981527 22.454552 -1.511465 86.033187 3.187067 -4.388078 -16.637821 -9.056046 -5.305198 31.424038 1.289950 8.968010 -24.629223 0.000000 -0.000000 0.000000 -3.833646 0.348553 -14.515220 5.654729 0.758110 32.440559 6.908736 -2.081370 -23.270250 0.000000 -0.000000 0.000000 0.903030 5.205547 17.823541 2.067550 3.645248 -0.558524 -0.158930 2.864928 3.908880 4.747225 12.476657 1.168469 -4.579259 2.903711 15.633877 -29.452459 15.140836 -2.488783 -54.736169 5.928466 7.266055 7.234919 -37.536744 8.015579 6.185168 -6.918626 -4.934181 29.823917 -5.441444 0.669274 48.870129 7.492319 14.675072 -22.593492 55.451173 -3.980987 3.512258 10.189888 -2.948927 
1.265874 -0.398676 0.980405 25.829543 -0.973000 85.771404 2.268728 -2.882455 -17.583808 -7.785976 -0.230470 38.770711 2.005250 10.331911 -24.913535 0.000000 -0.000000 0.000000 -3.034381 -0.299180 -14.805493 5.125336 -1.119811 32.489952 6.438469 -2.785149 -23.063130 0.000000 -0.000000 0.000000 1.981099 4.858194 18.357486 3.077283 3.318800 -0.867998 0.314842 2.798522 3.996746 5.388403 12.380818 2.096747 -4.813586 4.115480 15.741589 -29.145980 14.899220 -2.204855 -54.896996 6.054438 7.552880 4.497231 -39.972311 12.665506 4.515488 -7.397725 -3.958257 29.578868 -6.066603 0.619450 48.345276 7.476894 13.820466 -24.171638 55.923004 -5.666470 3.758939 9.902845 -2.421985 
1.254558 -0.390673 0.978252 29.014638 -0.803552 85.543140 1.080778 -1.663966 -17.179490 -6.678747 3.460928 44.824608 2.992059 11.367796 -24.474456 0.000000 -0.000000 0.000000 -3.083830 -0.933392 -15.200704 5.098183 -3.227751 32.637845 5.791640 -3.157677 -22.847757 0.000000 -0.000000 0.000000 2.525632 4.621498 18.509555 3.983935 3.235519 -0.950245 0.792642 2.640118 4.192033 6.457497 12.239086 2.572124 -4.794555 5.080717 15.706550 -28.652000 14.553175 -1.803488 -55.088667 5.425223 7.877111 2.176173 -41.551824 16.424636 2.982220 -7.776811 -3.000778 29.841091 -6.817231 0.186526 48.284463 7.617987 12.919273 -26.260261 55.542588 -7.953349 4.506218 10.478146 -2.250387 
1.244373 -0.382836 0.975128 31.988457 -0.400013 85.516881 0.434904 -0.166607 -15.760352 -6.350194 5.845919 49.329971 3.437740 11.642203 -23.681192 0.000000 -0.000000 0.000000 -3.126484 -1.864632 -15.999451 5.168783 -5.273265 33.136778 5.744303 -3.527715 -22.662347 0.000000 -0.000000 0.000000 3.293677 4.149460 18.015892 4.850607 3.002393 -0.539951 1.145143 2.323958 4.118729 7.059328 12.225355 3.254398 -4.545596 6.153347 15.436770 -28.313345 14.011551 -1.171237 -55.476409 5.062380 7.944880 1.265568 -43.096377 18.184856 2.297459 -7.712672 -2.544711 30.137256 -6.860647 0.491466 47.656178 7.427835 12.090621 -28.049969 55.576021 -10.013069 5.248742 9.877243 -1.569992 
1.233959 -0.374071 0.971816 34.899665 0.177976 85.835838 0.252118 0.942963 -13.532856 -6.338421 7.297008 51.401417 3.077555 11.888751 -23.031577 0.000000 -0.000000 0.000000 -2.928613 -2.310417 -17.241444 5.084992 -7.178806 33.794066 5.338245 -3.407895 -22.456117 0.000000 -0.000000 0.000000 3.829862 3.524208 17.332724 5.778925 2.633808 -0.101838 1.644181 2.274211 3.991365 7.504830 12.771870 3.368003 -4.640180 7.121101 15.323535 -27.971486 13.775072 -1.245222 -55.939875 4.733598 8.025041 0.646015 -44.314080 18.874449 2.381006 -7.492165 -3.004797 30.125211 -7.669073 0.239429 47.605922 7.821508 11.637949 -28.492345 55.352834 -10.507662 5.012033 9.214635 -1.639867 
1.224466 -0.365544 0.968714 37.721760 0.602609 86.051302 -0.008857 1.915522 -9.888728 -5.544426 7.815754 50.487449 3.345881 12.639652 -23.325797 0.000000 -0.000000 0.000000 -2.854608 -2.708995 -18.341850 5.039132 -8.610110 34.358194 5.201104 -4.369033 -22.125072 0.000000 -0.000000 0.000000 4.253779 2.767302 16.206873 6.450807 2.365377 0.539766 2.016270 1.914555 3.968588 8.058167 13.195272 4.016718 -4.646869 8.330523 15.165675 -27.722675 13.266814 -0.694156 -56.156775 4.217696 7.916991 0.992236 -45.537740 18.639980 1.947152 -7.333874 -3.309295 30.348928 -7.505996 0.705830 47.624135 7.742047 11.225784 -30.400987 54.641186 -12.422344 5.011290 8.822202 -1.168228 
1.214484 -0.355881 0.965106 40.269404 0.785095 86.314492 -0.278119 3.152323 -5.619553 -4.484419 7.127756 47.193627 3.116295 14.351567 -23.704584 0.000000 -0.000000 0.000000 -3.181941 -2.848481 -19.531195 5.145766 -10.190340 34.777281 4.951913 -5.311617 -21.884269 0.000000 -0.000000 0.000000 4.352230 1.792205 15.405715 6.735112 2.349266 0.660277 2.239172 1.553993 4.038288 8.583597 13.597758 4.567898 -4.507340 9.265097 15.139696 -27.105156 13.143408 -0.444824 -56.179307 3.481122 7.986785 1.045604 -46.329629 18.899886 2.579592 -7.361268 -3.931924 30.494765 -7.740068 0.544935 48.161888 8.137527 11.284483 -30.167575 53.579904 -12.323126 4.825927 8.779914 -0.756788 
1.204744 -0.345469 0.961313 42.616304 1.042417 86.811353 0.048595 4.255121 -1.305369 -3.737377 6.386873 42.213460 3.494135 15.747130 -24.750338 0.000000 -0.000000 0.000000 -3.392598 -3.611421 -21.326470 4.788505 -11.802908 35.805338 5.529171 -5.560877 -21.637584 0.000000 -0.000000 0.000000 4.571013 0.908256 14.232784 6.934360 2.155357 0.974367 2.239968 1.294957 3.984189 8.999957 14.438945 4.754410 -4.832413 9.847518 15.646571 -26.684763 13.148610 -0.247358 -55.774905 2.596664 7.914638 0.898445 -46.939977 18.996837 2.070110 -7.585173 -3.736807 30.745130 -8.210611 0.225216 48.691107 8.309839 11.369399 -30.213320 53.056641 -12.241612 6.340289 8.944983 0.333621 
